<svg width="176" height="132" viewBox="0 0 176 132" fill="none" xmlns="http://www.w3.org/2000/svg">
<path d="M51.0172 38.0075C58.062 20.4305 75.1838 10.8869 89.2605 16.6904C97.2306 19.9766 102.515 27.4786 104.321 36.5593C111.852 31.3592 120.777 29.7385 128.73 33.0175C142.807 38.8217 148.508 57.7758 141.463 75.3533C134.419 92.931 117.296 102.476 103.219 96.6719C103.035 96.5963 102.853 96.5177 102.673 96.4377C95.5368 113.777 78.5603 123.146 64.5835 117.383C50.5067 111.579 44.8063 92.6243 51.851 75.0467C52.171 74.2482 52.5126 73.4667 52.8729 72.702C45.1727 78.6321 36.4941 79.8679 32.093 75.1478C26.9375 69.6184 29.6046 58.0108 38.0506 49.2218C41.7154 45.4082 45.8665 42.7518 49.8125 41.4181C50.1617 40.2781 50.5633 39.14 51.0172 38.0075Z" fill="#012A4A"/>
<path d="M106.159 71.9689C106.313 71.4861 106.552 70.9883 106.876 70.4754C107.205 69.9594 107.625 69.5455 108.136 69.2337C108.934 68.7473 109.698 68.6367 110.43 68.9018C111.162 69.167 111.803 69.7695 112.355 70.7094L114.936 75.109L116.275 74.8534L117.054 76.1823L112.783 78.7874L112.003 77.4586L112.583 76.5658L110.226 72.547C109.706 71.6611 109.103 71.4313 108.416 71.8577C108.155 72.0167 107.939 72.2401 107.768 72.5279C107.593 72.8104 107.463 73.0732 107.377 73.3166C107.287 73.5545 107.235 73.7076 107.219 73.7757L109.829 78.224L110.907 78.1274L111.686 79.4562L107.239 82.1689L106.459 80.8401L107.474 79.6598L102.003 70.3339L100.551 70.7687L99.7712 69.4399L103.307 67.1074L106.159 71.9689Z" fill="#F1B260"/>
<path d="M97.2551 73.9993L97.612 74.9848C97.6074 74.9613 97.7183 74.8214 97.9446 74.565C98.171 74.3085 98.4515 74.0642 98.7863 73.8319C99.1255 73.5929 99.5014 73.4385 99.9141 73.3689C101.079 73.1724 102.046 73.4458 102.813 74.1893C103.586 74.9319 104.119 76.0485 104.41 77.5391C104.742 79.2352 104.613 80.6117 104.025 81.6687C103.441 82.7189 102.413 83.3682 100.941 83.6165C100.461 83.6974 99.9648 83.7205 99.4511 83.6859L99.8985 85.9747L101.61 86.1133L101.893 87.557L96.3555 88.4909L96.0732 87.0472L97.3307 86.4078L95.3672 76.3636L93.9077 76.1461L93.6255 74.7024L97.2551 73.9993ZM99.0278 81.5204C99.4537 81.6365 99.9176 81.6522 100.419 81.5676C101.128 81.4481 101.584 81.1165 101.789 80.5728C101.994 80.029 102.002 79.2759 101.814 78.3135C101.628 77.3627 101.352 76.6576 100.986 76.1981C100.619 75.7385 100.132 75.56 99.5243 75.6625C99.1953 75.718 98.9281 75.8388 98.7225 76.0251C98.517 76.2113 98.3645 76.4037 98.2651 76.6023C98.1701 76.7941 98.1249 76.9018 98.1295 76.9253L99.0278 81.5204Z" fill="#F1B260"/>
<path d="M88.4222 75.0013C88.3637 75.0095 88.2241 75.0271 88.0033 75.0542C87.7825 75.0813 87.494 75.1409 87.138 75.2331C86.782 75.3252 86.41 75.4528 86.0219 75.616C84.9431 76.0695 84.301 76.8528 84.0956 77.9661C83.8872 79.0723 84.1528 80.5051 84.8924 82.2645C85.6026 83.954 86.4224 85.0758 87.3519 85.6298C88.2785 86.1768 89.2943 86.2181 90.3994 85.7536C90.9914 85.5047 91.528 85.1518 92.0093 84.6948C92.4877 84.2308 92.875 83.7805 93.1713 83.3438C93.4742 82.9043 93.6198 82.6706 93.6081 82.6426L95.533 84.1009C95.5506 84.1427 95.3909 84.481 95.0539 85.1155C94.714 85.7431 94.226 86.396 93.59 87.0741C92.951 87.7452 92.1612 88.2785 91.2206 88.6739C89.1617 89.5394 87.2984 89.5627 85.6307 88.7439C83.96 87.9182 82.6053 86.2696 81.5664 83.7981C80.8679 82.1365 80.5444 80.5843 80.5958 79.1415C80.6472 77.6987 81.0477 76.4418 81.7972 75.3709C82.5534 74.2973 83.6188 73.4715 84.9936 72.8936C85.7237 72.5867 86.4664 72.3649 87.2217 72.2281C87.974 72.0844 88.6448 71.9955 89.2342 71.9613C89.8206 71.9202 90.1168 71.9066 90.1227 71.9206L91.7364 76.0358L89.7532 76.8694L88.4222 75.0013Z" fill="#F1B260"/>
<path d="M126.334 47.4101C126.341 47.4199 126.493 47.3457 126.788 47.1874C127.084 47.0291 127.388 46.8299 127.7 46.59C128.52 45.9601 128.75 45.4018 128.39 44.9151C128.23 44.6944 127.986 44.6035 127.658 44.6424C127.329 44.6812 126.855 44.8085 126.237 45.0242C125.573 45.2514 125.009 45.4104 124.543 45.5011C124.082 45.5882 123.614 45.5704 123.138 45.4477C122.658 45.3201 122.241 45.011 121.886 44.5206C121.247 43.6377 121.07 42.7629 121.354 41.8961C121.643 41.0256 122.229 40.251 123.112 39.5724C123.512 39.2649 123.941 38.9856 124.397 38.7345C124.858 38.4795 125.256 38.2844 125.591 38.1492C125.927 38.0053 126.136 37.917 126.219 37.8841L127.794 40.1877L126.521 41.1662L125.646 40.43C125.639 40.4202 125.507 40.4795 125.251 40.6078C124.999 40.7324 124.749 40.8903 124.5 41.0815C124.168 41.3364 123.96 41.5995 123.875 41.8706C123.792 42.1331 123.841 42.3894 124.022 42.6396C124.181 42.8603 124.424 42.9487 124.749 42.9049C125.074 42.8612 125.539 42.7216 126.143 42.4863C126.799 42.2493 127.355 42.0781 127.81 41.9726C128.27 41.8633 128.732 41.867 129.196 41.9837C129.662 42.0916 130.068 42.3859 130.416 42.8666C131.034 43.72 131.202 44.6245 130.922 45.5802C130.641 46.5358 129.976 47.4167 128.927 48.2228C128.507 48.5452 128.074 48.8394 127.629 49.1053C127.184 49.3712 126.809 49.5827 126.505 49.7399C126.206 49.8933 126.013 49.984 125.927 50.0119L124.155 47.5621L125.502 46.5273L126.334 47.4101Z" fill="#F1B260"/>
<path d="M122.182 47.2748C122.176 47.26 122.221 47.1387 122.317 46.9109C122.413 46.6831 122.541 46.4594 122.701 46.2398C122.862 46.0151 123.048 45.8585 123.259 45.7699C123.425 45.6999 123.588 45.649 123.746 45.6172C123.905 45.5854 124.032 45.5691 124.128 45.5681C124.226 45.5657 124.288 45.564 124.311 45.5628L125.15 47.7854L124.212 48.1797L123.647 47.2796C123.467 47.3553 123.313 47.477 123.183 47.6447C123.056 47.8073 122.956 47.971 122.886 48.1357C122.817 48.2954 122.784 48.3789 122.787 48.3863L124.05 51.3912L125.214 51.2352L125.597 52.1461L122.152 53.5944L121.769 52.6836L122.486 52.0489L120.931 48.3498L119.976 48.4179L119.593 47.507L121.761 46.5302L122.182 47.2748Z" fill="#F1B260"/>
<path d="M110.955 48.3297L113.207 46.6879L115.552 50.2322C115.743 50.5196 115.926 50.6969 116.103 50.7642C116.281 50.8258 116.48 50.7801 116.7 50.6269C116.89 50.494 117.042 50.33 117.154 50.1348C117.263 49.9364 117.344 49.751 117.395 49.5785C117.444 49.4028 117.464 49.3082 117.455 49.2948L115.68 46.6128L114.716 46.9114L114.172 46.0892L116.423 44.4475L119.379 48.9141L120.311 48.5655L120.842 49.3676L118.792 50.8976L118.221 50.2483C118.23 50.2617 118.19 50.4044 118.1 50.6765C118.014 50.9464 117.883 51.2333 117.706 51.5371C117.527 51.8377 117.298 52.0848 117.02 52.2786C116.522 52.6255 116.028 52.7326 115.539 52.5999C115.053 52.465 114.619 52.1101 114.239 51.5353L112.464 48.8533L111.499 49.1518L110.955 48.3297Z" fill="#F1B260"/>
<path d="M110.331 49.7172C111.567 49.6317 112.559 49.9431 113.309 50.6516C114.064 51.3598 114.515 52.4084 114.661 53.7977C114.761 54.7518 114.679 55.5918 114.413 56.3179C114.151 57.0436 113.733 57.6164 113.158 58.0365C112.582 58.4513 111.878 58.6875 111.048 58.745C108.437 58.9258 106.976 57.5405 106.665 54.589C106.565 53.6349 106.648 52.8027 106.916 52.0924C107.189 51.3817 107.619 50.8239 108.206 50.4189C108.792 50.0086 109.501 49.7747 110.331 49.7172ZM110.452 51.6495C109.871 51.6897 109.465 51.9159 109.231 52.3281C109.002 52.74 108.937 53.4125 109.035 54.3457C109.129 55.2369 109.325 55.8807 109.624 56.2772C109.928 56.6733 110.36 56.852 110.92 56.8132C111.485 56.7741 111.879 56.5382 112.1 56.1057C112.322 55.6732 112.383 54.9852 112.283 54.0415C112.195 53.2027 112.004 52.5849 111.71 52.1881C111.416 51.7913 110.997 51.6118 110.452 51.6495Z" fill="#F1B260"/>
<path d="M98.334 49.0787L96.4035 49.8902L96.7816 52.203L94.9105 52.9895L92.9078 48.2253L104.669 43.2814L106.672 48.0456L104.791 48.8363L103.403 46.948L101.472 47.7595L105.851 58.1757L108.063 58.0355L108.855 59.9195L101.856 62.8617L101.064 60.9777L102.713 59.4949L98.334 49.0787Z" fill="#F1B260"/>
<path d="M95.2727 63.7279L95.9518 65.3436L90.0712 67.8156L89.3921 66.1999L90.6488 65.0804L85.8821 53.7407L84.2443 53.9538L83.5652 52.3381L87.7326 50.4008L93.4145 63.9177L95.2727 63.7279Z" fill="#F1B260"/>
<path d="M85.7117 63.9193C85.7222 63.9377 85.6677 64.1086 85.5481 64.4319C85.4285 64.7553 85.2546 65.0893 85.0265 65.4339C84.7958 65.7739 84.5131 66.0432 84.1784 66.2418C83.5348 66.6236 82.9215 66.732 82.3385 66.5669C81.7572 66.3947 81.2641 65.9547 80.8592 65.2469C80.3964 64.438 80.3288 63.6871 80.6564 62.9941C80.9841 62.301 81.6649 61.6478 82.699 61.0343L83.6258 60.4845L83.1801 59.7055C82.7857 59.0161 82.2508 58.8748 81.5755 59.2816C81.3738 59.4012 81.1964 59.528 81.0431 59.662C80.8899 59.796 80.7723 59.912 80.6904 60.0098C80.6101 60.1005 80.5597 60.1581 80.5392 60.1826L80.8485 61.1903L79.6643 61.8928L78.3791 59.8575C78.4405 59.7841 78.5951 59.6123 78.8429 59.3422C79.0949 59.0695 79.4076 58.7671 79.7807 58.4349C80.1582 58.1002 80.5357 57.8208 80.9133 57.5968C81.5912 57.1946 82.1823 56.9671 82.6865 56.9142C83.1881 56.8567 83.6482 56.9777 84.0667 57.2773C84.4826 57.5723 84.8865 58.0622 85.2783 58.7469L87.2741 62.2352L88.4112 61.9023L89.058 63.0329L86.4744 64.6949L85.7117 63.9193ZM82.6484 63.8991C82.8062 64.1749 82.9936 64.3468 83.2108 64.415C83.4296 64.476 83.6635 64.4327 83.9123 64.2851C84.1226 64.1603 84.2965 63.9771 84.4341 63.7354C84.569 63.4892 84.6705 63.2597 84.7385 63.047C84.8038 62.8297 84.8418 62.6902 84.8525 62.6285L84.3121 61.684L83.5591 62.1308C83.0485 62.4337 82.7237 62.7249 82.5847 63.0043C82.4457 63.2837 82.467 63.582 82.6484 63.8991Z" fill="#F1B260"/>
<path d="M76.7183 63.6375C76.5827 63.3148 76.5741 63.0155 76.6926 62.7397C76.8111 62.4639 77.0082 62.268 77.284 62.1521C77.943 61.8751 78.421 62.09 78.7181 62.7969C78.857 63.1272 78.8661 63.4331 78.7454 63.7143C78.6269 63.9902 78.4394 64.182 78.1827 64.2899C77.8609 64.4252 77.5731 64.4377 77.3194 64.3273C77.064 64.2132 76.8637 63.9832 76.7183 63.6375ZM82.6174 69.8369L83.0146 70.7819L79.4863 72.2651L79.089 71.3201L79.9079 70.63L78.2947 66.7923L77.2287 66.8946L76.8315 65.9496L79.5139 64.7542L81.6721 69.8884L82.6174 69.8369Z" fill="#F1B260"/>
<path d="M78.064 74.0109C77.6864 74.2799 77.2028 74.5168 76.6132 74.7216C76.0285 74.9271 75.3658 74.9728 74.6249 74.8588C73.3635 74.6646 72.4205 74.1316 71.7959 73.2598C71.1714 72.3879 70.9272 71.2686 71.0636 69.9018C71.2056 68.4778 71.6878 67.4149 72.51 66.713C73.3377 66.0067 74.4174 65.756 75.7489 65.961C76.1393 66.0211 76.5281 66.1231 76.9152 66.2672C77.3074 66.412 77.6317 66.5489 77.8882 66.6781C78.1502 66.8029 78.3147 66.8863 78.3817 66.9282L78.0453 69.5359L76.6638 69.3233L76.5588 68.1594C76.5097 68.1413 76.3869 68.0987 76.1903 68.0315C75.9943 67.9591 75.7686 67.9032 75.5133 67.8639C74.9477 67.7769 74.4847 67.9088 74.1244 68.2596C73.7691 68.6112 73.5529 69.1742 73.4756 69.9486C73.3875 70.8321 73.4798 71.5375 73.7525 72.065C74.0306 72.588 74.4876 72.8984 75.1233 72.9963C75.5238 73.0579 75.8804 73.0495 76.1932 72.971C76.5115 72.888 76.78 72.7948 76.9987 72.6913C77.2174 72.5878 77.3638 72.5206 77.4381 72.4898L78.064 74.0109Z" fill="#F1B260"/>
<path d="M65.1842 62.6791C66.319 62.2021 67.342 62.186 68.2534 62.6308C69.1694 63.0737 69.8995 63.9425 70.4438 65.2373C70.8176 66.1265 70.9859 66.9642 70.9487 67.7502C70.9161 68.5343 70.6912 69.221 70.274 69.8104C69.8547 70.3948 69.2638 70.8473 68.5011 71.1679C66.103 72.176 64.3257 71.3046 63.1694 68.5538C62.7956 67.6646 62.6304 66.8343 62.6737 66.0629C62.7217 65.2896 62.9619 64.6136 63.3945 64.0351C63.825 63.4517 64.4215 62.9997 65.1842 62.6791ZM65.8632 64.5066C65.3302 64.7306 65.0145 65.0789 64.9158 65.5516C64.8218 66.0223 64.9575 66.6925 65.3231 67.5623C65.6723 68.3929 66.0451 68.9519 66.4417 69.2394C66.8429 69.525 67.3007 69.5596 67.8153 69.3433C68.3344 69.1251 68.6346 68.7718 68.7158 68.2835C68.7971 67.7951 68.6528 67.1112 68.2831 66.2317C67.9545 65.45 67.5942 64.9144 67.2023 64.625C66.8103 64.3355 66.3639 64.2961 65.8632 64.5066Z" fill="#F1B260"/>
<path d="M58.2052 78.7086C58.2596 78.7212 58.3931 78.7271 58.6057 78.7263C58.8253 78.7226 59.104 78.6941 59.4418 78.6407C59.7765 78.5797 60.1283 78.4717 60.4972 78.3167C61.2209 78.0124 61.7637 77.5893 62.1255 77.0474C62.4873 76.5055 62.5447 75.9408 62.2978 75.3535C62.1491 74.9996 61.9127 74.7489 61.5887 74.6016C61.2717 74.4513 60.9094 74.3688 60.502 74.354C60.0983 74.3288 59.5241 74.3265 58.7794 74.3471C57.6911 74.3881 56.768 74.3642 56.01 74.2752C55.2519 74.1863 54.5091 73.9093 53.7813 73.4444C53.0606 72.9765 52.4802 72.2192 52.0402 71.1726C51.6066 70.141 51.4678 69.1582 51.6239 68.2242C51.7837 67.2799 52.1951 66.4468 52.8581 65.7251C53.521 65.0034 54.3709 64.4246 55.4078 63.9888C56.1177 63.6904 56.8491 63.4627 57.602 63.3057C58.3618 63.1458 58.9996 63.046 59.5152 63.0065C60.0347 62.9565 60.3647 62.9329 60.5051 62.9359L62.1565 67.1859L60.194 68.0109L58.8355 66.2693C58.7735 66.2777 58.6374 66.295 58.4274 66.3213C58.2173 66.3475 57.962 66.3928 57.6615 66.4571C57.3578 66.5139 57.0737 66.5979 56.8093 66.709C56.0855 67.0133 55.5902 67.4031 55.3233 67.8786C55.0564 68.3541 55.0242 68.8328 55.2268 69.3147C55.4357 69.8117 55.8126 70.114 56.3574 70.2217C56.906 70.3189 57.7174 70.35 58.7918 70.3148C59.88 70.2738 60.7981 70.2955 61.546 70.3798C62.3009 70.4612 63.027 70.7275 63.7243 71.1786C64.4287 71.6268 64.9881 72.3442 65.4028 73.3306C65.8776 74.4601 66.0354 75.5368 65.8761 76.5606C65.7138 77.577 65.2862 78.4788 64.5936 79.2662C63.8978 80.046 62.9966 80.6685 61.8901 81.1336C61.1802 81.432 60.4419 81.6626 59.6751 81.8254C58.9184 81.9929 58.2784 82.1069 57.7552 82.1673C57.2288 82.2202 56.8934 82.2505 56.7492 82.2579L54.8832 77.819L57.065 76.9019L58.2052 78.7086Z" fill="#F1B260"/>
</svg>
